<svg width="304" height="322" viewBox="0 0 304 322" fill="none" xmlns="http://www.w3.org/2000/svg">
<path fill-rule="evenodd" clip-rule="evenodd" d="M302.369 85.8658L245.045 54.4577C242.521 53.0748 239.7 53.0748 237.176 54.4577L208.107 70.3848V184.027H228.002V153.04H223.626C221.57 153.04 219.903 151.373 219.903 149.317C219.903 147.262 221.57 145.595 223.626 145.595H258.595C260.651 145.595 262.318 147.261 262.318 149.317C262.318 151.373 260.651 153.04 258.595 153.04H254.22V184.027H285.666V91.7423H300.866C302.315 91.7423 303.539 90.7918 303.899 89.3879C304.258 87.9839 303.641 86.5619 302.37 85.8658H302.369ZM258.44 104.927H244.832V90.1336C251.947 91.6927 257.473 97.6151 258.44 104.927ZM237.387 90.1336V104.927H223.781C224.747 97.6151 230.273 91.6927 237.387 90.1336ZM223.625 112.372H237.387V125.556H223.625V112.372ZM244.832 125.556V112.372H258.595V125.556H244.832ZM66.824 54.4571C64.2996 53.0742 61.4792 53.0742 58.9548 54.4571L1.63043 85.8658C0.359216 86.5619 -0.257469 87.9839 0.101746 89.3879C0.461582 90.7918 1.68564 91.7423 3.13491 91.7423H18.3349V184.027H49.7808V153.039H45.4051C43.349 153.039 41.6826 151.372 41.6826 149.317C41.6826 147.261 43.3497 145.594 45.4051 145.594H80.3749C82.4309 145.594 84.0974 147.261 84.0974 149.317C84.0974 151.373 82.4303 153.039 80.3749 153.039H75.9986V184.027H95.8938V70.3848L66.8246 54.4577L66.824 54.4571ZM80.2186 104.927H66.6112V90.133C73.726 91.6914 79.252 97.6145 80.2186 104.927ZM59.1663 90.133V104.927H45.5596C46.5255 97.6145 52.0515 91.6921 59.1663 90.133ZM45.4038 112.371H59.1663V125.556H45.4038V112.371ZM66.6112 125.556V112.371H80.3737V125.556H66.6112ZM148.422 18.9103L96.4137 47.4056C85.5615 53.3516 77.6519 38.8862 88.4917 32.947L145.494 1.71511C149.667 -0.571705 154.33 -0.571705 158.504 1.71511L215.506 32.947C226.346 38.8862 218.437 53.3516 207.584 47.4056L155.576 18.9103C153.281 17.6527 150.716 17.6527 148.421 18.9103H148.422ZM152 25.4395L103.339 52.1008V207.846H134.515V153.04H129.259C127.203 153.04 125.536 151.374 125.536 149.318C125.536 147.262 127.203 145.595 129.259 145.595H174.741C176.797 145.595 178.464 147.262 178.464 149.318C178.464 151.374 176.797 153.04 174.741 153.04H169.485V207.846H200.661V52.1008L152 25.4395ZM169.485 76.095H155.722V56.7625H169.485V76.095ZM155.722 83.5399H169.485V98.779H155.722V83.5399ZM148.277 56.7625V76.095H134.515V56.7625H148.277ZM148.277 98.779H134.515V83.5399H148.277V98.779ZM134.515 106.224H148.277V125.556H134.515V106.224ZM155.722 125.556V106.224H169.485V125.556H155.722ZM3.23356 203.698C1.45485 203.698 0 202.243 0 200.464V194.705C0 192.927 1.45485 191.471 3.23356 191.471H95.8938V203.698H3.23356ZM208.106 203.698H300.766C302.544 203.698 303.999 202.243 303.999 200.464V194.705C303.999 192.927 302.544 191.471 300.766 191.471H208.106V203.698ZM90.428 226.457V219.307C90.428 217.098 92.2346 215.291 94.4433 215.291H209.556C211.765 215.291 213.571 217.097 213.571 219.307V226.457C213.571 228.666 211.765 230.473 209.556 230.473H94.4433C92.2346 230.473 90.428 228.666 90.428 226.457Z" fill="#EFA6D8"/>
<path d="M151.5 322C202.586 322 244 280.586 244 229.5C244 178.414 202.586 137 151.5 137C100.414 137 59 178.414 59 229.5C59 280.586 100.414 322 151.5 322Z" fill="url(#paint0_radial_5_548)"/>
<path opacity="0.1" d="M214.996 172.274C182.464 143.311 134.254 134.255 119.36 160.515C104.466 186.776 142.485 179.189 190.695 204.274C238.905 229.358 238.977 193.624 214.996 172.274Z" fill="white"/>
<path opacity="0.7" d="M146.406 148.367C159.099 131.141 206.374 156.553 194.224 169.902C182.073 183.251 135.431 163.262 146.406 148.367Z" fill="white"/>
<path opacity="0.4" d="M194.362 170.474C200.442 160.486 214.743 174.001 208.472 179.489C202.201 184.976 188.875 179.489 194.362 170.474Z" fill="white"/>
<path opacity="0.1" d="M232.289 274.543C167.161 311.488 77.928 274.891 99.7629 241.52C119.904 210.739 115.701 183.005 87.8098 162.456C70.0749 179.309 59 203.104 59 229.5C59 280.586 100.414 322 151.5 322C186.23 322 216.472 302.85 232.289 274.543Z" fill="#66325A"/>
<path opacity="0.1" d="M234.912 269.528C233.515 269.94 232.128 270.338 230.704 270.784C120.589 305.314 74.7928 223.501 85.908 164.285C69.2798 181.009 59 204.052 59 229.499C59 280.585 100.414 321.999 151.5 321.999C188.247 321.999 219.987 300.57 234.912 269.528Z" fill="#66325A"/>
<path opacity="0.1" d="M165.638 307.861C114.551 307.861 73.1377 266.447 73.1377 215.361C73.1377 198.884 77.4683 183.43 85.0205 170.031C85.2593 168.096 85.5528 166.178 85.908 164.285C69.2798 181.009 59 204.052 59 229.499C59 280.585 100.414 321.999 151.5 321.999C180.658 321.999 206.628 308.477 223.582 287.396C207.721 300.172 187.59 307.861 165.638 307.861Z" fill="#66325A"/>
<path opacity="0.2" d="M155.853 318.472C104.767 318.472 63.3533 277.058 63.3533 225.972C63.3533 202.962 71.7782 181.935 85.6819 165.75C85.7646 165.264 85.818 164.768 85.9085 164.285C69.2798 181.009 59 204.053 59 229.499C59 280.586 100.414 321.999 151.5 321.999C174.555 321.999 195.597 313.522 211.784 299.562C196.254 311.404 176.894 318.472 155.853 318.472Z" fill="white"/>
<defs>
<radialGradient id="paint0_radial_5_548" cx="0" cy="0" r="1" gradientUnits="userSpaceOnUse" gradientTransform="translate(200.102 176.195) scale(177.931)">
<stop stop-color="#FFCEEA"/>
<stop offset="0.7642" stop-color="#D669BD"/>
<stop offset="1" stop-color="#FFBFEA"/>
</radialGradient>
</defs>
</svg>
