<svg width="18" height="18" viewBox="0 0 18 18" fill="none" xmlns="http://www.w3.org/2000/svg">
<path d="M17.4422 6.66705C16.7867 6.11593 15.7837 6.18157 15.2146 6.86019L14.8726 7.26483L17.2968 9.29889L17.6233 8.89572C18.1851 8.22766 18.114 7.22991 17.4422 6.66705Z" fill="white"/>
<path d="M10.5954 12.3252L10.415 12.5387C10.2584 12.7262 10.1456 12.9502 10.089 13.1877L9.59863 15.2397C9.55229 15.4338 9.61976 15.6378 9.77271 15.7661C9.92159 15.8912 10.1316 15.9275 10.3213 15.8464L12.2574 15.0069C12.4814 14.9095 12.6823 14.7596 12.8389 14.5737L13.0199 14.3595L10.5954 12.3252Z" fill="white"/>
<path d="M14.1918 8.07031L11.2761 11.5201L13.7005 13.5545L16.616 10.1044L14.1918 8.07031Z" fill="white"/>
<path d="M13.2199 2.33853L11.2164 0.434852C11.027 0.255282 10.7939 0.149516 10.5483 0.0808105V3.16468H13.6795C13.6141 2.8514 13.4545 2.56117 13.2199 2.33853Z" fill="white"/>
<path d="M9.06302 12.9426C9.15728 12.5481 9.34526 12.1747 9.60588 11.8625L13.713 7.00273V4.21938H10.021C9.7295 4.21938 9.4936 3.98348 9.4936 3.69196V0H1.58227C0.70977 0 0 0.70977 0 1.58227V16.4204C0 17.2929 0.70977 18.0027 1.58227 18.0027H12.1307C13.0032 18.0027 13.713 17.2929 13.713 16.4204V15.1736L13.6445 15.2547C13.3854 15.5632 13.0511 15.812 12.6787 15.9743L10.7411 16.8143C10.195 17.0502 9.5628 16.9666 9.09498 16.5748C8.63296 16.187 8.43261 15.5818 8.57269 14.9946L9.06302 12.9426ZM2.63711 3.16453H7.91134C8.20286 3.16453 8.43876 3.40043 8.43876 3.69196C8.43876 3.98348 8.20286 4.21938 7.91134 4.21938H2.63711C2.34559 4.21938 2.10969 3.98348 2.10969 3.69196C2.10969 3.40043 2.34559 3.16453 2.63711 3.16453ZM2.63711 6.36423H11.0759C11.3674 6.36423 11.6033 6.60013 11.6033 6.89165C11.6033 7.18318 11.3674 7.41908 11.0759 7.41908H2.63711C2.34559 7.41908 2.10969 7.18318 2.10969 6.89165C2.10969 6.60013 2.34559 6.36423 2.63711 6.36423ZM6.85649 13.7481H2.63711C2.34559 13.7481 2.10969 13.5122 2.10969 13.2207C2.10969 12.9292 2.34559 12.6933 2.63711 12.6933H6.85649C7.14802 12.6933 7.38391 12.9292 7.38391 13.2207C7.38391 13.5122 7.14802 13.7481 6.85649 13.7481ZM2.63711 10.5836C2.34559 10.5836 2.10969 10.3477 2.10969 10.0562C2.10969 9.76466 2.34559 9.52876 2.63711 9.52876H8.96618C9.25771 9.52876 9.4936 9.76466 9.4936 10.0562C9.4936 10.3477 9.25771 10.5836 8.96618 10.5836H2.63711Z" fill="white"/>
</svg>
