<svg width="239" height="358" viewBox="0 0 239 358" fill="none" xmlns="http://www.w3.org/2000/svg">
<path d="M142.875 76.2766L127.128 26.7838V7.62766C127.128 3.41516 123.713 0 119.5 0C115.288 0 111.873 3.41516 111.873 7.62766V26.7838L96.125 76.2766H142.875Z" fill="#EFA6D8"/>
<path d="M94.0745 91.532V260.357H111.872V214.592C111.872 210.379 115.287 206.964 119.5 206.964C123.712 206.964 127.128 210.379 127.128 214.592V260.357H144.926V91.532H94.0745ZM127.128 184.081C127.128 188.293 123.712 191.709 119.5 191.709C115.287 191.709 111.872 188.293 111.872 184.081V168.826C111.872 164.613 115.287 161.198 119.5 161.198C123.712 161.198 127.128 164.613 127.128 168.826V184.081ZM127.128 138.315C127.128 142.527 123.712 145.943 119.5 145.943C115.287 145.943 111.872 142.527 111.872 138.315V123.06C111.872 118.847 115.287 115.432 119.5 115.432C123.712 115.432 127.128 118.847 127.128 123.06V138.315Z" fill="#EFA6D8"/>
<path d="M49.1565 101.702V144.417H56.3606V129.162C56.3606 124.949 59.7757 121.534 63.9882 121.534C68.2007 121.534 71.6159 124.949 71.6159 129.162V144.417H78.8194V101.702H49.1565Z" fill="#EFA6D8"/>
<path d="M0 159.673V202.388H16.103V187.132C16.103 182.92 19.5182 179.505 23.7307 179.505C27.9432 179.505 31.3583 182.92 31.3583 187.132V202.388H47.4613V187.132C47.4613 182.92 50.8765 179.505 55.089 179.505C59.3015 179.505 62.7166 182.92 62.7166 187.132V202.388H78.8191V159.673H0Z" fill="#EFA6D8"/>
<path d="M0 217.642V252.73C0 256.942 3.41516 260.357 7.62766 260.357H16.103V245.318C16.103 241.21 19.2593 237.676 23.362 237.483C27.7423 237.276 31.3583 240.767 31.3583 245.102V260.357H47.4613V245.318C47.4613 241.21 50.6176 237.676 54.7203 237.483C59.1006 237.276 62.7166 240.767 62.7166 245.102V260.357H78.8191V217.642H0Z" fill="#EFA6D8"/>
<path d="M0 101.702H33.9009V144.417H0V101.702Z" fill="#EFA6D8"/>
<path d="M24.578 57.4959V38.1384C24.578 33.9259 21.1628 30.5107 16.9503 30.5107C12.7378 30.5107 9.32264 33.9259 9.32264 38.1384V57.4959L1.74023 86.4469H32.1604L24.578 57.4959Z" fill="#EFA6D8"/>
<path d="M189.844 101.702V144.417H182.64V129.162C182.64 124.949 179.225 121.534 175.012 121.534C170.8 121.534 167.384 124.949 167.384 129.162V144.417H160.181V101.702H189.844Z" fill="#EFA6D8"/>
<path d="M239 159.673V202.388H222.897V187.132C222.897 182.92 219.482 179.505 215.269 179.505C211.057 179.505 207.642 182.92 207.642 187.132V202.388H191.539V187.132C191.539 182.92 188.124 179.505 183.911 179.505C179.699 179.505 176.283 182.92 176.283 187.132V202.388H160.181V159.673H239Z" fill="#EFA6D8"/>
<path d="M239 217.642V252.73C239 256.942 235.585 260.357 231.372 260.357H222.897V245.318C222.897 241.21 219.741 237.676 215.638 237.483C211.258 237.276 207.642 240.767 207.642 245.102V260.357H191.539V245.318C191.539 241.21 188.382 237.676 184.28 237.483C179.899 237.276 176.283 240.767 176.283 245.102V260.357H160.181V217.642H239Z" fill="#EFA6D8"/>
<path d="M205.099 101.702H239V144.417H205.099V101.702Z" fill="#EFA6D8"/>
<path d="M214.422 57.4959V38.1384C214.422 33.9259 217.837 30.5107 222.05 30.5107C226.262 30.5107 229.678 33.9259 229.678 38.1384V57.4959L237.26 86.4469H206.84L214.422 57.4959Z" fill="#EFA6D8"/>
<path d="M119.5 357.83C170.586 357.83 212 316.416 212 265.33C212 214.243 170.586 172.83 119.5 172.83C68.4137 172.83 27 214.243 27 265.33C27 316.416 68.4137 357.83 119.5 357.83Z" fill="url(#paint0_radial_5_547)"/>
<path opacity="0.1" d="M182.996 208.104C150.464 179.141 102.254 170.085 87.3601 196.345C72.466 222.606 110.485 215.019 158.695 240.103C206.905 265.188 206.977 229.454 182.996 208.104Z" fill="white"/>
<path opacity="0.7" d="M114.406 184.197C127.099 166.971 174.374 192.383 162.224 205.731C150.073 219.081 103.431 199.092 114.406 184.197Z" fill="white"/>
<path opacity="0.4" d="M162.362 206.304C168.442 196.316 182.743 209.831 176.472 215.319C170.201 220.806 156.875 215.319 162.362 206.304Z" fill="white"/>
<path opacity="0.1" d="M200.289 310.373C135.161 347.318 45.928 310.721 67.7629 277.35C87.9036 246.568 83.7013 218.834 55.8098 198.285C38.0749 215.138 27 238.934 27 265.33C27 316.416 68.4137 357.83 119.5 357.83C154.23 357.83 184.472 338.679 200.289 310.373Z" fill="#66325A"/>
<path opacity="0.1" d="M202.912 305.358C201.515 305.769 200.128 306.167 198.704 306.614C88.5886 341.144 42.7928 259.33 53.908 200.115C37.2798 216.839 27 239.882 27 265.329C27 316.415 68.4137 357.829 119.5 357.829C156.247 357.829 187.987 336.4 202.912 305.358Z" fill="#66325A"/>
<path opacity="0.1" d="M133.638 343.691C82.5514 343.691 41.1377 302.277 41.1377 251.191C41.1377 234.714 45.4683 219.259 53.0205 205.861C53.2593 203.926 53.5528 202.008 53.908 200.115C37.2798 216.838 27 239.882 27 265.328C27 316.415 68.4137 357.828 119.5 357.828C148.658 357.828 174.628 344.307 191.582 323.226C175.721 336.002 155.59 343.691 133.638 343.691Z" fill="#66325A"/>
<path opacity="0.2" d="M123.853 354.302C72.7669 354.302 31.3533 312.888 31.3533 261.802C31.3533 238.792 39.7782 217.765 53.6819 201.58C53.7646 201.094 53.818 200.597 53.9085 200.115C37.2798 216.839 27 239.882 27 265.329C27 316.416 68.4137 357.829 119.5 357.829C142.555 357.829 163.597 349.352 179.784 335.392C164.254 347.234 144.894 354.302 123.853 354.302Z" fill="white"/>
<path d="M175.5 75.8298C187.926 75.8298 198 65.7562 198 53.3298C198 40.9034 187.926 30.8298 175.5 30.8298C163.074 30.8298 153 40.9034 153 53.3298C153 65.7562 163.074 75.8298 175.5 75.8298Z" fill="url(#paint1_radial_5_547)"/>
<path opacity="0.1" d="M190.945 39.4101C183.032 32.365 171.305 30.1622 167.682 36.5499C164.059 42.9376 173.307 41.0921 185.034 47.1938C196.76 53.2955 196.778 44.6034 190.945 39.4101Z" fill="white"/>
<path opacity="0.7" d="M174.261 33.5948C177.348 29.4046 188.848 35.5859 185.892 38.8329C182.937 42.08 171.591 37.2178 174.261 33.5948Z" fill="white"/>
<path opacity="0.4" d="M185.926 38.9721C187.405 36.5426 190.884 39.8301 189.358 41.1649C187.833 42.4997 184.591 41.1649 185.926 38.9721Z" fill="white"/>
<path opacity="0.1" d="M195.151 64.2862C179.309 73.2728 157.604 64.3708 162.915 56.2536C167.814 48.7662 166.792 42.0201 160.008 37.0217C155.694 41.1211 153 46.9091 153 53.3298C153 65.7562 163.074 75.8298 175.5 75.8298C183.948 75.8298 191.304 71.1716 195.151 64.2862Z" fill="#66325A"/>
<path opacity="0.1" d="M195.789 63.0665C195.45 63.1666 195.112 63.2634 194.766 63.3721C167.981 71.7712 156.842 51.8706 159.545 37.4668C155.501 41.5348 153 47.1399 153 53.3297C153 65.7561 163.074 75.8297 175.5 75.8297C184.438 75.8297 192.159 70.6173 195.789 63.0665Z" fill="#66325A"/>
<path opacity="0.1" d="M178.939 72.3907C166.512 72.3907 156.439 62.3171 156.439 49.8907C156.439 45.8829 157.492 42.1236 159.329 38.8646C159.387 38.3939 159.459 37.9274 159.545 37.4668C155.501 41.5347 153 47.1398 153 53.3296C153 65.756 163.074 75.8296 175.5 75.8296C182.592 75.8296 188.91 72.5406 193.033 67.4127C189.175 70.5204 184.279 72.3907 178.939 72.3907Z" fill="#66325A"/>
<path opacity="0.2" d="M176.559 74.9717C164.132 74.9717 154.059 64.8981 154.059 52.4717C154.059 46.8747 156.108 41.76 159.49 37.8232C159.51 37.705 159.523 37.5842 159.545 37.4668C155.5 41.5349 153 47.14 153 53.3298C153 65.7562 163.074 75.8298 175.5 75.8298C181.108 75.8298 186.226 73.7677 190.164 70.3721C186.386 73.2525 181.677 74.9717 176.559 74.9717Z" fill="white"/>
<path d="M64.5 49.8298C74.165 49.8298 82 41.9948 82 32.3298C82 22.6649 74.165 14.8298 64.5 14.8298C54.835 14.8298 47 22.6649 47 32.3298C47 41.9948 54.835 49.8298 64.5 49.8298Z" fill="url(#paint2_radial_5_547)"/>
<path opacity="0.1" d="M76.5126 21.5034C70.358 16.0239 61.2372 14.3106 58.4194 19.2788C55.6016 24.247 62.7944 22.8116 71.9151 27.5574C81.0359 32.3032 81.0495 25.5427 76.5126 21.5034Z" fill="white"/>
<path opacity="0.7" d="M63.5364 16.9805C65.9377 13.7214 74.8817 18.5291 72.583 21.0545C70.2842 23.58 61.4601 19.7983 63.5364 16.9805Z" fill="white"/>
<path opacity="0.4" d="M72.6092 21.1627C73.7594 19.2731 76.4651 21.83 75.2786 22.8682C74.0922 23.9064 71.5711 22.8682 72.6092 21.1627Z" fill="white"/>
<path opacity="0.1" d="M79.7843 40.8512C67.4629 47.8408 50.581 40.917 54.7119 34.6036C58.5223 28.7801 57.7273 23.5332 52.4505 19.6455C49.0953 22.8339 47 27.3357 47 32.3296C47 41.9946 54.835 49.8296 64.5 49.8296C71.0705 49.8296 76.7921 46.2065 79.7843 40.8512Z" fill="#66325A"/>
<path opacity="0.1" d="M80.2806 39.9028C80.0163 39.9807 79.754 40.056 79.4845 40.1405C58.6519 46.6731 49.9878 31.1949 52.0907 19.9919C48.9448 23.1559 47 27.5155 47 32.3298C47 41.9947 54.835 49.8298 64.5 49.8298C71.4521 49.8298 77.4571 45.7757 80.2806 39.9028Z" fill="#66325A"/>
<path opacity="0.1" d="M67.1747 47.155C57.5097 47.155 49.6747 39.32 49.6747 29.655C49.6747 26.5378 50.494 23.6139 51.9228 21.0791C51.968 20.713 52.0235 20.3502 52.0907 19.9919C48.9448 23.1559 47 27.5154 47 32.3297C47 41.9947 54.835 49.8297 64.5 49.8297C70.0164 49.8297 74.9297 47.2716 78.1372 43.2832C75.1364 45.7003 71.3279 47.155 67.1747 47.155Z" fill="#66325A"/>
<path opacity="0.2" d="M65.3236 49.1624C55.6586 49.1624 47.8236 41.3274 47.8236 31.6624C47.8236 27.3092 49.4175 23.3311 52.0479 20.2691C52.0636 20.1772 52.0737 20.0833 52.0908 19.9919C48.9448 23.156 47 27.5155 47 32.3298C47 41.9948 54.835 49.8298 64.5 49.8298C68.8618 49.8298 72.8427 48.226 75.9052 45.585C72.9669 47.8253 69.3043 49.1624 65.3236 49.1624Z" fill="white"/>
<defs>
<radialGradient id="paint0_radial_5_547" cx="0" cy="0" r="1" gradientUnits="userSpaceOnUse" gradientTransform="translate(168.102 212.025) scale(177.931)">
<stop stop-color="#FFCEEA"/>
<stop offset="0.7642" stop-color="#D669BD"/>
<stop offset="1" stop-color="#FFBFEA"/>
</radialGradient>
<radialGradient id="paint1_radial_5_547" cx="0" cy="0" r="1" gradientUnits="userSpaceOnUse" gradientTransform="translate(187.322 40.3637) scale(43.2805)">
<stop stop-color="#FFCEEA"/>
<stop offset="0.7642" stop-color="#D669BD"/>
<stop offset="1" stop-color="#FFBFEA"/>
</radialGradient>
<radialGradient id="paint2_radial_5_547" cx="0" cy="0" r="1" gradientUnits="userSpaceOnUse" gradientTransform="translate(73.6949 22.2451) scale(33.6626)">
<stop stop-color="#FFCEEA"/>
<stop offset="0.7642" stop-color="#D669BD"/>
<stop offset="1" stop-color="#FFBFEA"/>
</radialGradient>
</defs>
</svg>
