<svg width="22" height="21" viewBox="0 0 22 21" fill="none" xmlns="http://www.w3.org/2000/svg">
<path d="M19.9942 8.65936L19.9942 8.65942L16.2194 11.9538C15.7329 12.3783 15.5197 13.0363 15.6648 13.6654L16.7967 18.5752L16.7971 18.5771C16.8307 18.7207 16.8211 18.871 16.7697 19.0092C16.7182 19.1474 16.6272 19.2674 16.5079 19.3541C16.3887 19.4408 16.2465 19.4905 16.0992 19.4969L16.1316 20.2462L16.0992 19.4969C15.9522 19.5032 15.8066 19.4662 15.6805 19.3905C15.6802 19.3903 15.6799 19.3901 15.6796 19.3899L11.4091 16.7997C10.8508 16.4611 10.1505 16.4614 9.59254 16.8006L5.33258 19.3899C5.33219 19.3902 5.33181 19.3904 5.33142 19.3906C5.20539 19.4663 5.05991 19.5032 4.91304 19.4969L4.88062 20.2462L4.91304 19.4969C4.76572 19.4905 4.62355 19.4408 4.5043 19.3541C4.38505 19.2674 4.29402 19.1474 4.24258 19.0092C4.19113 18.871 4.18157 18.7207 4.21509 18.5771L4.21555 18.5751L5.34577 13.6705C5.49066 13.0418 5.27784 12.3843 4.792 11.9598L1.01385 8.65819L1.01386 8.65818L1.01017 8.65499C0.898328 8.55854 0.817455 8.4312 0.777693 8.28897C0.737931 8.14673 0.741048 7.99592 0.786654 7.85545C0.832259 7.71498 0.918323 7.5911 1.03405 7.49934C1.14978 7.40759 1.29003 7.35205 1.4372 7.33968L1.43911 7.33952L6.41127 6.90886C7.05927 6.85274 7.62268 6.44186 7.87416 5.84203L9.81638 1.20949L9.81687 1.20831C9.87351 1.07257 9.96904 0.956626 10.0914 0.875072C10.2138 0.793517 10.3576 0.75 10.5047 0.75C10.6518 0.75 10.7956 0.793517 10.918 0.875072C11.0404 0.956626 11.1359 1.07257 11.1925 1.20831L11.1933 1.21023L13.1418 5.84371C13.3937 6.44264 13.9566 6.85273 14.6039 6.90881L19.575 7.33952L19.5769 7.33968C19.7241 7.35205 19.8643 7.40759 19.9801 7.49934C20.0958 7.5911 20.1818 7.71498 20.2275 7.85545C20.2731 7.99592 20.2762 8.14673 20.2364 8.28897C20.2007 8.41676 20.1318 8.53252 20.037 8.62466C20.0224 8.63567 20.0081 8.64724 19.9942 8.65936Z" stroke="#F89A1C" stroke-width="1.5"/>
</svg>
