<svg width="254" height="397" viewBox="0 0 254 397" fill="none" xmlns="http://www.w3.org/2000/svg">
<g opacity="0.15">
<path d="M324.618 384.697C242.737 433.397 136.88 406.499 88.1798 324.618C39.4795 242.737 66.3777 136.88 148.259 88.1797C230.14 39.4794 335.997 66.3776 384.697 148.258C433.397 230.139 406.499 335.996 324.618 384.697Z" fill="url(#paint0_radial_5_377)"/>
<path opacity="0.1" d="M80.1144 205.247C104.645 127.813 173.283 67.3399 222.189 95.2316C271.095 123.123 202.926 147.206 149.569 233.37C96.2115 319.534 62.0309 262.328 80.1144 205.247Z" fill="white"/>
<path opacity="0.7" d="M167.26 101.543C130.494 86.0326 78.9461 171.83 111.146 181.643C143.347 191.455 199.049 114.954 167.26 101.543Z" fill="white"/>
<path opacity="0.4" d="M111.47 182.692C92.204 172.479 82.166 207.775 97.4485 210.592C112.731 213.409 128.859 191.91 111.47 182.692Z" fill="white"/>
<path opacity="0.1" d="M149.89 385.648C289.496 382.777 397.63 239.054 330.821 206.383C269.196 176.247 249.492 127.789 274.607 68.2643C319.099 78.3697 359.533 105.951 384.697 148.258C433.397 230.139 406.499 335.996 324.618 384.697C268.953 417.804 202.225 415.94 149.89 385.648Z" fill="#66325A"/>
<path opacity="0.1" d="M140.905 380.111C143.537 379.439 146.138 378.755 148.847 378.113C358.256 328.485 353.665 153.698 279.4 69.3832C321.994 80.3368 360.437 107.471 384.696 148.257C433.396 230.138 406.498 335.995 324.617 384.695C265.72 419.725 194.418 415.638 140.905 380.111Z" fill="#66325A"/>
<path opacity="0.1" d="M288.48 375.512C370.36 326.812 397.259 220.955 348.558 139.074C332.851 112.665 311.177 92.0226 286.3 77.7476C284.073 74.8737 281.774 72.0796 279.4 69.3832C321.994 80.3361 360.437 107.47 384.695 148.256C433.396 230.137 406.498 335.994 324.617 384.694C277.882 412.491 223.367 415.576 176.097 397.949C213.699 403.306 253.294 396.439 288.48 375.512Z" fill="#66325A"/>
<path opacity="0.2" d="M314.277 383.191C396.158 334.491 423.056 228.634 374.356 146.753C352.421 109.873 318.872 84.2023 281.159 71.5161C280.563 70.816 280.004 70.071 279.399 69.3836C321.994 80.3374 360.438 107.471 384.696 148.257C433.397 230.138 406.498 335.995 324.618 384.696C287.665 406.674 245.858 413.145 206.605 406.202C242.786 410.376 280.553 403.249 314.277 383.191Z" fill="white"/>
</g>
<defs>
<radialGradient id="paint0_radial_5_377" cx="0" cy="0" r="1" gradientUnits="userSpaceOnUse" gradientTransform="translate(107.725 197.333) rotate(149.257) scale(331.817)">
<stop stop-color="#FFCEEA"/>
<stop offset="0.7642" stop-color="#D669BD"/>
<stop offset="1" stop-color="#FFBFEA"/>
</radialGradient>
</defs>
</svg>
