<svg width="20" height="20" viewBox="0 0 20 20" fill="none" xmlns="http://www.w3.org/2000/svg">
<path d="M10 20C15.5228 20 20 15.5228 20 10C20 4.47715 15.5228 0 10 0C4.47715 0 0 4.47715 0 10C0 15.5228 4.47715 20 10 20Z" fill="url(#paint0_radial_3_1235)"/>
<path opacity="0.1" d="M16.8644 3.81341C13.3475 0.682256 8.13561 -0.296766 6.52543 2.54221C4.91525 5.38119 9.02543 4.56097 14.2373 7.27283C19.4492 9.9847 19.4569 6.12154 16.8644 3.81341Z" fill="white"/>
<path opacity="0.7" d="M9.44928 1.22889C10.8215 -0.633422 15.9323 2.11382 14.6188 3.55693C13.3052 5.00009 8.26283 2.83911 9.44928 1.22889Z" fill="white"/>
<path opacity="0.4" d="M14.6337 3.61884C15.291 2.53906 16.8371 4.00017 16.1592 4.59341C15.4812 5.18666 14.0405 4.59341 14.6337 3.61884Z" fill="white"/>
<path opacity="0.1" d="M18.7339 14.8695C11.6931 18.8636 2.04627 14.9071 4.4068 11.2995C6.58418 7.97173 6.12987 4.97346 3.11458 2.75195C1.19729 4.57391 0 7.14635 0 10C0 15.5228 4.47716 20 10 20C13.7546 20 17.024 17.9297 18.7339 14.8695Z" fill="#66325A"/>
<path opacity="0.1" d="M19.0175 14.3274C18.8664 14.3718 18.7166 14.4149 18.5626 14.4632C6.65822 18.1961 1.70733 9.3514 2.90898 2.94971C1.11133 4.75771 0 7.24886 0 9.99988C0 15.5227 4.47716 19.9999 10 19.9999C13.9726 19.9999 17.404 17.6833 19.0175 14.3274Z" fill="#66325A"/>
<path opacity="0.1" d="M11.5284 18.4714C6.00556 18.4714 1.5284 13.9943 1.5284 8.47144C1.5284 6.6902 1.99658 5.0194 2.81302 3.57095C2.83884 3.36175 2.87058 3.15442 2.90898 2.94971C1.11133 4.75766 0 7.24882 0 9.99984C0 15.5227 4.47715 19.9998 10 19.9998C13.1522 19.9998 15.9598 18.5381 17.7927 16.259C16.078 17.6402 13.9016 18.4714 11.5284 18.4714Z" fill="#66325A"/>
<path opacity="0.2" d="M10.4706 19.6185C4.94778 19.6185 0.470622 15.1414 0.470622 9.61855C0.470622 7.131 1.38142 4.8578 2.88453 3.10811C2.89347 3.05557 2.89924 3.00188 2.90902 2.94971C1.11133 4.75775 0 7.24891 0 9.99993C0 15.5228 4.47715 19.9999 10 19.9999C12.4924 19.9999 14.7672 19.0834 16.5172 17.5743C14.8382 18.8545 12.7453 19.6185 10.4706 19.6185Z" fill="white"/>
<defs>
<radialGradient id="paint0_radial_3_1235" cx="0" cy="0" r="1" gradientUnits="userSpaceOnUse" gradientTransform="translate(15.2542 4.23729) scale(19.2358)">
<stop stop-color="#FFCEEA"/>
<stop offset="0.7642" stop-color="#D669BD"/>
<stop offset="1" stop-color="#FFBFEA"/>
</radialGradient>
</defs>
</svg>
