<svg width="18" height="18" viewBox="0 0 18 18" fill="none" xmlns="http://www.w3.org/2000/svg">
<path d="M17.3401 9.96006C16.5869 9.76678 15.8569 9.49232 15.163 9.14148C14.9487 9.03434 14.7515 8.93148 14.5715 8.83291C14.2158 8.63577 13.933 8.46006 13.7487 8.34006C13.7382 8.33266 13.7266 8.32688 13.7144 8.32291C13.5785 8.24372 13.4235 8.20343 13.2663 8.20646C13.109 8.20948 12.9557 8.2557 12.823 8.34006C11.7172 9.06318 10.5055 9.60973 9.23153 9.96006C9.04399 10.0056 8.8771 10.1127 8.75748 10.2641C8.63786 10.4156 8.5724 10.6028 8.57153 10.7958V11.5286C8.57108 12.587 8.8322 13.6291 9.33166 14.5622C9.83112 15.4954 10.5534 16.2906 11.4344 16.8772L11.833 17.1429L12.8101 17.7943C12.8876 17.8454 12.973 17.883 13.063 17.9058H13.0672C13.1375 17.93 13.2115 17.9416 13.2858 17.9401C13.4552 17.9386 13.6204 17.888 13.7615 17.7943L15.1372 16.8772C16.0182 16.2906 16.7405 15.4954 17.24 14.5622C17.7394 13.6291 18.0006 12.587 18.0001 11.5286V10.7958C17.9992 10.6028 17.9338 10.4156 17.8142 10.2641C17.6945 10.1127 17.5277 10.0056 17.3401 9.96006ZM14.8758 12.3043L13.1615 14.0186C13.0803 14.0983 12.971 14.1429 12.8572 14.1429C12.7435 14.1429 12.6342 14.0983 12.553 14.0186L11.6958 13.1615C11.6151 13.0808 11.5698 12.9713 11.5698 12.8572C11.5698 12.7431 11.6151 12.6336 11.6958 12.5529C11.7765 12.4722 11.886 12.4269 12.0001 12.4269C12.1142 12.4269 12.2237 12.4722 12.3044 12.5529L12.8572 13.1101L14.2672 11.6958C14.3072 11.6558 14.3546 11.6241 14.4069 11.6025C14.4591 11.5809 14.515 11.5697 14.5715 11.5697C14.628 11.5697 14.684 11.5809 14.7362 11.6025C14.7884 11.6241 14.8359 11.6558 14.8758 11.6958C14.9158 11.7357 14.9475 11.7832 14.9691 11.8354C14.9907 11.8876 15.0019 11.9435 15.0019 12.0001C15.0019 12.0566 14.9907 12.1125 14.9691 12.1647C14.9475 12.2169 14.9158 12.2644 14.8758 12.3043Z" fill="white"/>
<path d="M13.9629 4.38863L10.2986 0.642913C10.1671 0.509823 10.0186 0.394554 9.85715 0.300056V3.42863C9.85816 3.76931 9.99395 4.09574 10.2348 4.33664C10.4757 4.57754 10.8022 4.71333 11.1429 4.71434H14.2243C14.147 4.59824 14.0595 4.48923 13.9629 4.38863ZM14.5457 5.57149H11.1429C10.5745 5.57149 10.0295 5.34572 9.62763 4.94386C9.22577 4.54199 9 3.99695 9 3.42863V0.0171984C8.92346 0.00509981 8.84606 -0.000634094 8.76857 5.55385e-05H2.14286C1.57454 5.55385e-05 1.02949 0.22582 0.627628 0.627684C0.225765 1.02955 0 1.57459 0 2.14291V15.8572C0 16.4255 0.225765 16.9706 0.627628 17.3724C1.02949 17.7743 1.57454 18.0001 2.14286 18.0001H11.5757L10.9586 17.5886C9.96 16.9244 9.14122 16.0235 8.57517 14.9662C8.00912 13.9089 7.71338 12.7279 7.71429 11.5286V10.7958C7.71445 10.5307 7.77607 10.2693 7.89431 10.0321C8.01254 9.79489 8.18418 9.58832 8.39572 9.42863H3C2.88634 9.42863 2.77733 9.38348 2.69695 9.3031C2.61658 9.22273 2.57143 9.11372 2.57143 9.00006C2.57143 8.88639 2.61658 8.77738 2.69695 8.69701C2.77733 8.61664 2.88634 8.57149 3 8.57149H10.6029C11.2097 8.29783 11.7956 7.97982 12.3557 7.62006C12.607 7.46042 12.8952 7.36826 13.1925 7.3525C13.4898 7.33673 13.7861 7.39789 14.0529 7.53006L14.0829 7.54291L14.2114 7.62006C14.3014 7.68006 14.4214 7.75291 14.5714 7.84291V5.88863C14.5716 5.78239 14.563 5.67632 14.5457 5.57149ZM7.71429 14.1429C7.71429 14.2566 7.66913 14.3656 7.58876 14.446C7.50839 14.5263 7.39938 14.5715 7.28572 14.5715H3C2.88634 14.5715 2.77733 14.5263 2.69695 14.446C2.61658 14.3656 2.57143 14.2566 2.57143 14.1429C2.57143 14.0293 2.61658 13.9202 2.69695 13.8399C2.77733 13.7595 2.88634 13.7143 3 13.7143H7.28572C7.39938 13.7143 7.50839 13.7595 7.58876 13.8399C7.66913 13.9202 7.71429 14.0293 7.71429 14.1429ZM3 11.1429H6.42857C6.54224 11.1429 6.65125 11.1881 6.73162 11.2684C6.81199 11.3488 6.85714 11.4578 6.85714 11.5715C6.85714 11.6852 6.81199 11.7942 6.73162 11.8745C6.65125 11.9549 6.54224 12.0001 6.42857 12.0001H3C2.88634 12.0001 2.77733 11.9549 2.69695 11.8745C2.61658 11.7942 2.57143 11.6852 2.57143 11.5715C2.57143 11.4578 2.61658 11.3488 2.69695 11.2684C2.77733 11.1881 2.88634 11.1429 3 11.1429ZM3 3.42863H6.42857C6.54224 3.42863 6.65125 3.47378 6.73162 3.55415C6.81199 3.63453 6.85714 3.74354 6.85714 3.8572C6.85714 3.97086 6.81199 4.07987 6.73162 4.16024C6.65125 4.24062 6.54224 4.28577 6.42857 4.28577H3C2.88634 4.28577 2.77733 4.24062 2.69695 4.16024C2.61658 4.07987 2.57143 3.97086 2.57143 3.8572C2.57143 3.74354 2.61658 3.63453 2.69695 3.55415C2.77733 3.47378 2.88634 3.42863 3 3.42863ZM9 6.8572H3C2.88634 6.8572 2.77733 6.81205 2.69695 6.73167C2.61658 6.6513 2.57143 6.54229 2.57143 6.42863C2.57143 6.31496 2.61658 6.20596 2.69695 6.12558C2.77733 6.04521 2.88634 6.00006 3 6.00006H9C9.11367 6.00006 9.22268 6.04521 9.30305 6.12558C9.38342 6.20596 9.42857 6.31496 9.42857 6.42863C9.42857 6.54229 9.38342 6.6513 9.30305 6.73167C9.22268 6.81205 9.11367 6.8572 9 6.8572Z" fill="white"/>
</svg>
