<svg width="18" height="18" viewBox="0 0 18 18" fill="none" xmlns="http://www.w3.org/2000/svg">
<path fill-rule="evenodd" clip-rule="evenodd" d="M0 14.5723V1.17898C0 0.529493 0.527989 0.0015001 1.17748 0.0015001L8.99981 0L13.4997 4.49994V6.77541C13.3137 6.75891 13.1262 6.74991 12.9372 6.74991C11.6128 6.74991 10.3858 7.1669 9.3793 7.87489H2.24845V8.99838H8.16583C7.87933 9.34487 7.63034 9.72287 7.42484 10.1249H2.24845V11.2483H6.98235C6.88036 11.6113 6.80986 11.9878 6.77386 12.3748H2.24995V13.4983H6.77386C6.84586 14.3038 7.07235 15.0643 7.42334 15.7498H1.17748C0.527989 15.7498 0 15.2218 0 14.5723ZM11.2513 6.74991V5.62642H2.24995V6.74991H11.2513ZM12.3747 4.49994L8.99981 1.12499V3.61645C8.99981 4.10394 9.3958 4.49994 9.88329 4.49994H12.3747Z" fill="white"/>
<path fill-rule="evenodd" clip-rule="evenodd" d="M9.35836 16.5163C7.3799 14.5408 7.3799 11.3323 9.35836 9.35837C11.3323 7.37989 14.5407 7.37989 16.5162 9.35837C18.4947 11.3323 18.4947 14.5408 16.5162 16.5163C14.5407 18.4947 11.3323 18.4947 9.35836 16.5163ZM13.5013 15.2218V12.9013C13.5013 12.6103 13.2643 12.3733 12.9733 12.3733H12.9028C12.6118 12.3733 12.3748 12.6103 12.3748 12.9013V15.2218C12.3748 15.5128 12.6118 15.7498 12.9028 15.7498H12.9733C13.2643 15.7498 13.5013 15.5128 13.5013 15.2218ZM13.4998 10.6873C13.4998 10.3769 13.2478 10.1249 12.9373 10.1249C12.6268 10.1249 12.3748 10.3769 12.3748 10.6873C12.3748 10.9978 12.6268 11.2498 12.9373 11.2498C13.2478 11.2498 13.4998 10.9978 13.4998 10.6873Z" fill="white"/>
</svg>
