<svg width="22" height="21" viewBox="0 0 22 21" fill="none" xmlns="http://www.w3.org/2000/svg">
<path d="M20.4891 9.22294L16.261 12.9129L17.5275 18.4067C17.5945 18.6939 17.5754 18.9945 17.4725 19.2709C17.3697 19.5472 17.1876 19.7872 16.9491 19.9606C16.7106 20.1341 16.4262 20.2334 16.1316 20.2462C15.837 20.2589 15.5451 20.1845 15.2925 20.0323L10.501 17.1261L5.71971 20.0323C5.46712 20.1845 5.17526 20.2589 4.88062 20.2462C4.58598 20.2334 4.30164 20.1341 4.06314 19.9606C3.82464 19.7872 3.64257 19.5472 3.53969 19.2709C3.43681 18.9945 3.41769 18.6939 3.48471 18.4067L4.7494 12.9186L0.520333 9.22294C0.296654 9.03002 0.13491 8.77536 0.0553858 8.49089C-0.0241389 8.20642 -0.0179045 7.9048 0.073307 7.62385C0.164519 7.34291 0.336647 7.09515 0.568107 6.91164C0.799567 6.72813 1.08005 6.61705 1.3744 6.59231L6.94877 6.1095L9.12471 0.9195C9.23834 0.647172 9.43 0.414551 9.67557 0.250929C9.92114 0.0873076 10.2096 0 10.5047 0C10.7998 0 11.0883 0.0873076 11.3338 0.250929C11.5794 0.414551 11.7711 0.647172 11.8847 0.9195L14.0672 6.1095L19.6397 6.59231C19.934 6.61705 20.2145 6.72813 20.446 6.91164C20.6775 7.09515 20.8496 7.34291 20.9408 7.62385C21.032 7.9048 21.0382 8.20642 20.9587 8.49089C20.8792 8.77536 20.7174 9.03002 20.4938 9.22294H20.4891Z" fill="#F89A1C"/>
</svg>
